<?xml version="1.0" standalone="no"?>
<!DOCTYPE svg PUBLIC "-//W3C//DTD SVG 20010904//EN"
 "http://www.w3.org/TR/2001/REC-SVG-20010904/DTD/svg10.dtd">
<svg version="1.0" xmlns="http://www.w3.org/2000/svg"
 width="1280.000000pt" height="1280.000000pt" viewBox="0 0 1280.000000 1280.000000"
 preserveAspectRatio="xMidYMid meet">
<g transform="translate(0.000000,1280.000000) scale(0.100000,-0.100000)"
fill="#000000" stroke="none">
<path d="M6160 10475 c-122 -17 -275 -56 -398 -101 -477 -177 -964 -632 -1299
-1214 -444 -773 -691 -1784 -652 -2670 21 -474 141 -1056 314 -1520 70 -187
206 -475 316 -667 177 -310 327 -510 545 -728 373 -373 747 -575 1179 -636
116 -16 386 -16 495 0 573 85 1116 461 1549 1069 179 253 361 597 482 915 255
670 362 1479 298 2247 -29 350 -130 843 -237 1160 -166 491 -426 959 -722
1305 -92 107 -307 317 -405 396 -244 196 -528 343 -793 409 -197 49 -466 63
-672 35z m438 -410 c322 -102 539 -465 686 -1145 13 -63 45 -275 71 -470 l46
-355 27 -700 c23 -591 26 -758 20 -1075 -22 -1180 -160 -2056 -397 -2524 -163
-322 -345 -468 -598 -483 -178 -11 -322 42 -457 168 -261 244 -425 702 -530
1484 l-46 340 -29 725 c-25 636 -27 769 -20 1084 25 1142 160 2003 384 2461
77 155 126 227 224 325 138 138 255 188 438 189 82 1 117 -4 181 -24z"/>
</g>
</svg>
