<?xml version="1.0" encoding="UTF-8" standalone="no"?>
<svg
   xmlns:dc="http://purl.org/dc/elements/1.1/"
   xmlns:cc="http://creativecommons.org/ns#"
   xmlns:rdf="http://www.w3.org/1999/02/22-rdf-syntax-ns#"
   xmlns:svg="http://www.w3.org/2000/svg"
   xmlns="http://www.w3.org/2000/svg"
   xmlns:sodipodi="http://sodipodi.sourceforge.net/DTD/sodipodi-0.dtd"
   xmlns:inkscape="http://www.inkscape.org/namespaces/inkscape"
   width="1000"
   height="1000"
   viewBox="0 0 264.58333 264.58334"
   version="1.1"
   id="svg8"
   inkscape:version="1.0.1 (3bc2e813f5, 2020-09-07)"
   sodipodi:docname="Seoulmetro9_icon.svg">
  <style
     id="style833"></style>
  <defs
     id="defs2" />
  <sodipodi:namedview
     id="base"
     pagecolor="#ffffff"
     bordercolor="#666666"
     borderopacity="1.0"
     inkscape:pageopacity="0.0"
     inkscape:pageshadow="2"
     inkscape:zoom="0.49497475"
     inkscape:cx="452.56012"
     inkscape:cy="481.51004"
     inkscape:document-units="mm"
     inkscape:current-layer="layer1"
     inkscape:document-rotation="0"
     showgrid="false"
     units="px"
     inkscape:snap-bbox="true"
     inkscape:bbox-paths="true"
     inkscape:window-width="1920"
     inkscape:window-height="1017"
     inkscape:window-x="-8"
     inkscape:window-y="-8"
     inkscape:window-maximized="1"
     inkscape:snap-object-midpoints="true" />
  <metadata
     id="metadata5">
    <rdf:RDF>
      <cc:Work
         rdf:about="">
        <dc:format>image/svg+xml</dc:format>
        <dc:type
           rdf:resource="http://purl.org/dc/dcmitype/StillImage" />
        <dc:title></dc:title>
      </cc:Work>
    </rdf:RDF>
  </metadata>
  <g
     inkscape:label="레이어 1"
     inkscape:groupmode="layer"
     id="layer1">
    <circle
       style="opacity:0.993;fill:#bdb092;stroke:none;stroke-width:0.353792;stroke-linecap:round;stroke-linejoin:round;paint-order:markers fill stroke;fill-opacity:1"
       id="path835"
       cx="132.29166"
       cy="132.29167"
       r="132.11478" />
    <g
       aria-label="9"
       id="text839"
       style="font-style:normal;font-variant:normal;font-weight:900;font-stretch:normal;font-size:240.16px;line-height:1.25;font-family:'Noto Sans CJK KR';-inkscape-font-specification:'Noto Sans CJK KR Heavy';letter-spacing:0px;word-spacing:0px;fill:#ffffff;fill-opacity:1;stroke:none;stroke-width:0.400267">
      <path
         d="m 90.023489,212.50511 c 4.56304,0.24016 11.047361,0.24016 17.771841,-0.48032 21.13408,-1.44096 39.86656,-8.64576 53.55568,-21.37424 16.33088,-15.37024 27.13808,-39.14608 27.13808,-72.52832 0,-37.945278 -19.45296,-66.524319 -55.71712,-66.524319 -33.382241,0 -56.437602,25.937281 -56.437602,55.717119 0,28.8192 20.173441,48.27216 47.311522,48.27216 14.88992,0 26.17744,-5.04336 34.10272,-13.68912 h 0.48032 c -2.88192,14.88992 -9.84656,26.65776 -20.17344,34.8232 -8.4056,6.96464 -19.93328,11.04736 -31.70112,12.008 -6.964641,0.72048 -11.527681,0.96064 -16.330881,0.48032 z M 131.33101,73.692632 c 18.97264,0 27.13808,18.012 26.89792,39.146078 0,4.08272 -0.72048,6.48432 -1.68112,8.4056 -4.56304,7.2048 -13.2088,12.96864 -25.2168,12.96864 -16.33088,0 -25.69712,-12.48832 -25.69712,-28.57904 0,-18.732478 10.56704,-31.941278 25.45696,-31.941278 z"
         style="font-style:normal;font-variant:normal;font-weight:600;font-stretch:normal;font-size:240.16px;font-family:'Myriad Pro';-inkscape-font-specification:'Myriad Pro Semi-Bold';text-align:center;text-anchor:middle;fill:#ffffff;fill-opacity:1;stroke-width:0.400267"
         id="path1435" />
    </g>
  </g>
</svg>
